<?xml version="1.0" encoding="iso-8859-1"?>
<!-- Uploaded to: SVG Repo, www.svgrepo.com, Generator: SVG Repo Mixer Tools -->
<svg fill="#000000" height="800px" width="800px" version="1.1" id="Layer_1" xmlns="http://www.w3.org/2000/svg" xmlns:xlink="http://www.w3.org/1999/xlink" 
	 viewBox="0 0 285.779 285.779" xml:space="preserve">
<g>
	<g>
		<g>
			<path d="M120.145,34.925c-60.232,0-109.232,49-109.232,109.232c0,60.236,49,109.236,109.232,109.236
				c60.236,0,109.236-49,109.236-109.236C229.381,83.925,180.381,34.925,120.145,34.925z M120.145,251.121
				c-58.98,0-106.964-47.988-106.964-106.968c0-58.98,47.984-106.964,106.964-106.964s106.968,47.984,106.968,106.964
				S179.129,251.121,120.145,251.121z"/>
			<path d="M119.833,22.569c-32.14,0.128-62.304,12.764-84.936,35.584c-22.632,22.82-35.024,53.084-34.896,85.224
				c0.264,66.18,54.192,119.836,120.316,119.836c0.16,0,0.328,0,0.488,0c66.344-0.268,120.1-54.464,119.836-120.808
				c-0.128-32.14-12.768-62.304-35.584-84.936C182.241,34.837,151.861,22.389,119.833,22.569z M120.793,259.241
				c-0.16,0-0.312,0-0.472,0c-63.94,0-116.088-51.888-116.348-115.884c-0.124-31.08,11.86-60.348,33.748-82.412
				c21.888-22.068,51.056-34.284,82.132-34.412c0.164,0,0.324,0,0.488,0c30.896,0,59.972,11.972,81.92,33.748
				c22.068,21.884,34.288,51.056,34.416,82.132C236.933,206.573,184.949,258.977,120.793,259.241z"/>
			<path d="M186.801,69.413c-9.44-5.508-22.052-4.744-27.548,1.68c-0.244,0.284-0.488,0.528-0.732,0.796
				c0.184-0.26,0.304-0.56,0.528-0.796c-11.828-6.736-25.464-10.64-40.008-10.64h-0.328c-34.996,0.14-64.704,22.56-75.952,53.708
				c-5.06,1.648-10.224,3.192-16.436,4.88l-2.404,0.652l1.172,2.196c0.62,1.168,1.76,2.224,3.128,2.9
				c0.56,0.272,1.144,0.504,1.732,0.732c0.876,0.336,1.704,0.656,2.268,1.128c1.648,1.384,1.484,4.372,0.78,6.708
				c-0.224,0.736-0.484,1.468-0.744,2.2c-0.856,2.408-1.74,4.9-1.5,7.668c0.296,3.512,2.272,6.3,4.188,9
				c1.784,2.516,3.472,4.896,3.42,7.464c-0.016,0.82-0.212,1.708-0.416,2.644c-0.34,1.532-0.724,3.264-0.36,5.092
				c0.828,4.16,4.604,6.044,7.94,7.708c2.716,1.356,5.276,2.632,5.928,4.816c0.516,1.712-0.232,3.6-1.096,5.788
				c-0.596,1.516-1.22,3.084-1.476,4.784c-0.532,3.516,0.712,7.248,3.244,9.752c0.716,0.7,1.528,1.312,2.344,1.916
				c1.152,0.852,2.244,1.656,2.764,2.672c0.864,1.672,0.356,4.036-1.628,7.504c-1.724,3-3.868,6.736-2.788,10.68
				c0.612,2.264,2.132,3.884,3.224,4.904l0.996,0.928l1.228-0.592c2.34-1.136,11.94-5.068,21.228-8.868
				c3.744-1.532,7.344-3.008,10.428-4.28c0.04,0.244,0.036,0.488,0.092,0.736c0.76,3.468,3.256,6.516,6.512,7.944
				c0.916,0.404,1.896,0.68,2.868,0.952c1.388,0.384,2.692,0.748,3.548,1.512l0.004,0.004c1.404,1.252,1.772,3.636,1.148,7.596
				c-0.532,3.416-1.196,7.66,1.22,10.96c1.384,1.9,3.38,2.864,4.76,3.424l1.26,0.512l0.932-0.996
				c1.772-1.896,9.324-8.98,16.624-15.836c5.616-5.272,10.932-10.26,13.428-12.712c30.276-9.104,53.108-35.36,57.148-67.448
				c2.984-1.592,5.604-3.648,7.712-6.14c6.528-7.724,7.108-19.356,1.32-26.484c-1.596-1.964-3.544-3.504-5.428-4.992
				c-2.288-1.808-4.452-3.52-5.764-5.808c-2.668-4.644-3.448-9.636-2.088-13.352C199.121,84.341,195.969,74.777,186.801,69.413z
				 M65.073,110.445c0.016,0.048,0.032,0.096,0.048,0.144c0.712,2.336-0.752,5.076-2.208,7.808c-1.6,3-3.476,7.416-1.336,11.276
				c1,1.808,2.62,2.932,4.048,3.924c0.684,0.472,1.372,0.94,1.972,1.5c0.512,0.476,0.932,1.032,1.272,1.632
				c-2.992,2.608-5.764,4.98-8.476,7.232c0.092-2.984-1.072-5.992-3.268-8.036c-0.724-0.672-1.528-1.232-2.304-1.768
				c-1.26-0.876-2.456-1.704-3.104-2.88l-1.984,1.1c0.908,1.636,2.376,2.656,3.796,3.64c0.748,0.516,1.448,1.008,2.056,1.568
				c1.892,1.756,2.872,4.436,2.564,6.992c-0.06,0.496-0.18,0.992-0.316,1.492c-2.452,1.996-4.964,3.976-7.648,6.024
				c-0.772-1.552-1.736-3.036-2.764-4.464c-1.816-2.524-3.532-4.908-3.768-7.632c-0.184-2.148,0.58-4.264,1.384-6.508
				c0.288-0.8,0.576-1.6,0.824-2.404c1.332-4.356,0.648-8.18-1.836-10.232c-0.996-0.824-2.148-1.26-3.26-1.688
				c-0.096-0.036-0.188-0.08-0.28-0.116C48.341,116.593,55.465,114.029,65.073,110.445z M38.189,149.929
				c-1.68-2.372-3.264-4.608-3.472-7.044c-0.164-1.916,0.54-3.904,1.284-6.004c0.28-0.792,0.564-1.584,0.8-2.38
				c1.388-4.596,0.624-8.668-2.032-10.9c-1.076-0.896-2.3-1.372-3.388-1.788c-0.028-0.012-0.056-0.024-0.084-0.032
				c2.104-0.592,4.08-1.176,6.008-1.756c0.292,0.2,0.556,0.436,0.884,0.592c0.556,0.272,1.144,0.496,1.728,0.72
				c0.976,0.372,1.896,0.724,2.6,1.304c2.572,2.124,1.484,6.488,1.092,7.776c-0.236,0.768-0.512,1.536-0.788,2.3
				c-0.852,2.376-1.736,4.832-1.508,7.48c0.288,3.356,2.272,6.112,4.188,8.78c1.104,1.536,2.072,3.04,2.768,4.58
				c-1.548,1.164-3.152,2.356-4.872,3.612l-1.252,0.912C41.677,155.001,39.953,152.413,38.189,149.929z M57.853,224.113
				c-0.62-0.728-1.012-1.416-1.2-2.108c-0.644-2.356,0.908-5.056,2.444-7.74c1.684-2.94,3.688-7.304,1.676-11.216l-0.004-0.004
				c-0.944-1.836-2.532-3.012-3.928-4.048c-0.668-0.492-1.34-0.98-1.916-1.556c-1.644-1.62-2.452-4.048-2.108-6.328
				c0.192-1.252,0.704-2.548,1.248-3.92c0.992-2.508,2.116-5.356,1.212-8.388c-1.148-3.824-4.768-5.632-7.964-7.228
				c-2.884-1.436-5.372-2.68-5.82-4.928c-0.2-1.012,0.064-2.204,0.344-3.46c0.24-1.088,0.488-2.212,0.512-3.424
				c0-0.116-0.04-0.22-0.04-0.336l0.964,0.84c0.996,0.872,2.44,1.448,3.96,1.588c0.192,0.02,0.388,0.02,0.584,0.028
				c-0.036,0.62-0.028,1.248,0.1,1.892c0.704,3.544,3.804,5.26,6.94,6.836c0.06,2.512,0.148,5.104,1.336,7.56
				c0.996,2.06,2.56,3.56,4.276,4.876c-0.52,1.324-1.028,2.684-1.244,4.116c-0.492,3.248,0.656,6.704,2.996,9.02
				c0.704,0.692,1.492,1.276,2.252,1.84c1.236,0.916,2.404,1.776,3.016,2.968c1.324,2.568-0.284,5.932-1.644,8.3
				c-1.732,3.016-3.692,6.436-2.712,10.048c0.2,0.732,0.524,1.432,0.964,2.124C61.489,222.545,59.297,223.473,57.853,224.113z
				 M49.981,161.941c0.6,0.02,1.172,0.068,1.644,0.232c1.988,0.684,2.896,3.42,3.1,5.82c-2.26-1.2-4.164-2.52-4.588-4.66
				c-0.084-0.408-0.04-0.84-0.02-1.268C50.069,162.025,50.029,161.977,49.981,161.941z M79.417,205.789
				c-0.912,2.524-1.852,5.136-0.944,7.856c0.188,0.56,0.484,1.072,0.804,1.572c-0.428,0.176-0.852,0.348-1.276,0.524
				c-4.072,1.668-8.2,3.356-11.764,4.832c-0.436-0.612-0.756-1.216-0.92-1.828c-0.736-2.704,0.908-5.564,2.528-8.388
				c1.584-2.764,3.488-6.86,1.656-10.408c-0.856-1.66-2.292-2.728-3.684-3.752c-0.732-0.54-1.416-1.052-2.008-1.628
				c-1.832-1.812-2.732-4.524-2.348-7.072c0.152-1.012,0.508-2.032,0.904-3.072c0.316,0.216,0.632,0.436,0.948,0.648
				c2.568,1.716,4.988,3.332,5.864,5.752c0.28,0.768,0.416,1.668,0.556,2.616c0.232,1.552,0.492,3.308,1.484,4.888
				c2.06,3.264,5.72,3.896,9.164,4.256C80.153,203.629,79.817,204.685,79.417,205.789z M89.689,210.873c0,0.02,0,0.044,0,0.064
				c-2.456,1.02-5.312,2.192-8.296,3.416c-0.34-0.448-0.608-0.916-0.776-1.42c-0.656-1.972,0.112-4.104,0.928-6.368
				c0.436-1.204,0.832-2.452,1.092-3.732c2.528,0.276,4.816,0.692,6.012,2.24C89.737,206.489,89.717,208.521,89.689,210.873z
				 M110.389,244.037c-0.84-0.452-1.448-0.952-1.872-1.536c-1.44-1.972-0.96-5.044-0.484-8.1c0.524-3.348,0.844-8.136-2.44-11.076
				c-1.548-1.388-3.448-1.916-5.128-2.384c-0.796-0.224-1.596-0.436-2.34-0.76c-2.112-0.928-3.736-2.912-4.232-5.164
				c-0.268-1.236-0.252-2.624-0.24-4.1c0.032-2.7,0.068-5.756-1.868-8.264c-2.436-3.164-6.464-3.56-10.016-3.908
				c-3.208-0.312-5.976-0.584-7.2-2.528c-0.552-0.872-0.728-2.076-0.916-3.352c-0.164-1.1-0.332-2.244-0.748-3.388
				c-1.32-3.648-4.408-5.708-7.396-7.704c-2.416-1.608-4.696-3.132-5.756-5.332c-0.836-1.736-0.888-3.84-0.94-6.076
				c-0.024-0.84-0.044-1.676-0.1-2.504c-0.352-4.788-2.52-8.32-5.796-9.444c-1.356-0.468-2.644-0.412-3.896-0.464
				c1.764-1.312,3.404-2.564,5.004-3.8c0.3,0.068,0.58,0.184,0.892,0.212c1.588,0.144,3.264-0.104,4.592,0.352
				c3.064,1.056,3.604,5.416,3.7,6.728c0.06,0.776,0.08,1.568,0.096,2.356c0.06,2.464,0.12,5.016,1.252,7.352
				c1.428,2.964,4.18,4.796,6.836,6.572c2.684,1.796,5.224,3.488,6.192,6.172c0.304,0.852,0.444,1.784,0.588,2.772
				c0.232,1.544,0.464,3.136,1.368,4.568c2.04,3.236,5.848,3.608,9.532,3.968c3.208,0.312,6.236,0.608,7.852,2.708
				c1.272,1.648,1.248,3.916,1.224,6.32c-0.02,1.584-0.04,3.228,0.308,4.808c0.704,3.212,3.008,6.028,6.02,7.352
				c0.908,0.4,1.852,0.66,2.768,0.916c1.476,0.416,2.876,0.8,3.876,1.696c2.148,1.92,1.852,5.644,1.428,8.348
				c-0.54,3.432-1.152,7.324,1.06,10.348c0.448,0.612,1,1.148,1.656,1.64C113.221,241.277,111.509,242.925,110.389,244.037z
				 M128.889,226.513c-0.476-0.296-0.892-0.636-1.232-1.048c-1.324-1.612-1.364-3.884-1.412-6.284
				c-0.032-1.584-0.064-3.224-0.452-4.796c-0.804-3.188-3.196-5.932-6.248-7.164c-0.916-0.372-1.864-0.6-2.784-0.828
				c-1.492-0.368-2.904-0.716-3.928-1.58l-1.46,1.736c1.432,1.204,3.172,1.632,4.852,2.044c0.88,0.22,1.712,0.42,2.476,0.732
				c2.392,0.964,4.264,3.116,4.892,5.616c0.332,1.32,0.36,2.756,0.392,4.284c0.048,2.684,0.1,5.46,1.92,7.684
				c0.376,0.456,0.836,0.824,1.312,1.176c-0.348,0.324-0.688,0.648-1.036,0.972c-3.192,2.996-6.432,6.036-9.228,8.68
				c-0.624-0.416-1.136-0.864-1.512-1.376c-1.652-2.264-1.14-5.516-0.632-8.736c0.492-3.156,0.8-7.656-2.172-10.312
				c-1.396-1.248-3.112-1.728-4.78-2.192c-0.876-0.244-1.704-0.472-2.46-0.808c-2.36-1.036-4.168-3.244-4.716-5.756
				c-0.292-1.332-0.276-2.772-0.26-4.296c0.032-2.684,0.064-5.46-1.692-7.732c-2.216-2.876-5.884-3.236-9.424-3.584
				c-3.284-0.32-6.388-0.624-7.836-2.92c-0.644-1.028-0.836-2.32-1.04-3.688c-0.16-1.056-0.32-2.148-0.704-3.212
				c-1.224-3.384-4.196-5.368-7.068-7.284c-2.516-1.68-4.892-3.264-6.056-5.672c-0.916-1.9-0.968-4.096-1.028-6.424
				c-0.02-0.824-0.04-1.648-0.096-2.46c-0.32-4.432-2.272-7.688-5.224-8.704c-1.236-0.428-2.472-0.4-3.676-0.408
				c6.496-5.12,12.236-10.068,19.944-16.864c0.036,0.04,0.068,0.084,0.096,0.12c1.504,1.928,1.112,5.016,0.732,8.08
				c-0.424,3.364-0.6,8.164,2.772,11.004c1.584,1.328,3.496,1.8,5.188,2.22c0.804,0.196,1.612,0.392,2.372,0.696
				c2.14,0.864,3.82,2.788,4.384,5.032c0.308,1.228,0.336,2.616,0.364,4.092c0.052,2.7,0.112,5.756,2.116,8.204
				c2.536,3.088,6.572,3.364,10.132,3.6c3.212,0.22,5.988,0.404,7.268,2.308c0.58,0.856,0.792,2.06,1.02,3.332
				c0.2,1.092,0.4,2.224,0.848,3.352c1.424,3.604,4.576,5.576,7.62,7.476c2.464,1.54,4.788,2.992,5.92,5.16
				c0.888,1.704,1.004,3.804,1.124,6.032c0.048,0.84,0.092,1.684,0.18,2.512c0.488,4.772,2.756,8.24,6.072,9.264
				c1.036,0.32,2.056,0.372,3.008,0.364C135.489,220.309,132.265,223.341,128.889,226.513z M175.053,197.177
				c-8.48,8.548-18.604,14.832-29.636,18.72l-2.504-1.096c-0.812-0.352-1.712-0.568-2.596-0.62
				c-0.624-0.044-1.256-0.036-1.892-0.008c-0.928,0.024-1.816,0.044-2.52-0.172c-2.06-0.64-3.056-3.456-3.304-5.884
				c-0.08-0.764-0.12-1.548-0.164-2.324c-0.14-2.552-0.284-5.184-1.572-7.648c-1.628-3.124-4.528-4.936-7.336-6.692
				c-2.612-1.632-5.084-3.176-6.036-5.572c-0.296-0.756-0.456-1.648-0.628-2.592c-0.276-1.544-0.588-3.296-1.636-4.848
				c-2.364-3.516-6.576-3.796-10.292-4.048c-3.028-0.208-5.884-0.4-7.328-2.16c-1.132-1.384-1.172-3.416-1.22-5.764
				c-0.032-1.628-0.064-3.316-0.48-4.984c-0.868-3.448-3.456-6.416-6.752-7.744c-0.928-0.376-1.916-0.624-2.908-0.872
				c-1.392-0.344-2.708-0.668-3.584-1.404c-1.44-1.212-1.884-3.584-1.38-7.548c0.428-3.432,0.964-7.704-1.548-10.932
				c-0.584-0.752-1.296-1.396-2.184-1.968l-1.264-0.816l-1.124,0.996c-1.16,1.024-2.236,1.968-3.312,2.916
				c-0.452-0.696-0.956-1.356-1.568-1.924c-0.736-0.684-1.572-1.272-2.408-1.852c-1.176-0.82-2.288-1.588-2.844-2.588
				c-0.912-1.648-0.476-4.024,1.416-7.564c1.624-3.048,3.648-6.84,2.456-10.748c-0.276-0.908-0.712-1.76-1.332-2.612l-0.888-1.22
				l-1.416,0.528c-7.688,2.876-13.744,5.096-19.712,7.1c11.388-29.384,39.78-50.384,73.148-50.524h0.32
				c14.004,0,27.144,3.724,38.564,10.16c-8.188,8.212-16.28,6.352-25.544,4.224c-9.092-2.088-19.4-4.448-29.596,4.52
				c-6.352,5.584-8.828,13.476-9.792,19.108c-2.044,11.956,1.068,27.084,12.732,32.056c1.828,0.776,3.836,1.32,5.772,1.844
				c4.484,1.212,8.356,2.256,9.428,5.64c0.716,2.24-0.188,4.8-1.144,7.512c-0.268,0.764-0.536,1.524-0.768,2.276
				c-2.316,7.468-1.04,15.384,3.336,20.648c3.172,3.82,7.884,5.88,12.452,5.88c2.764,0,5.476-0.752,7.76-2.324
				c3.316-2.288,5.24-5.736,7.092-9.064c1.472-2.636,2.86-5.132,4.856-6.952c5.128-4.68,12.616-3.964,20.552-3.192
				c2.584,0.248,5.256,0.508,7.828,0.56c5.228,0.08,10.144-0.86,14.456-2.68C194.641,169.593,187.117,185.013,175.053,197.177z
				 M200.601,117.309c1.788,1.416,3.484,2.752,4.8,4.376c4.54,5.588,3.968,15.18-1.268,21.376
				c-4.684,5.532-12.78,8.748-21.484,8.556c-2.416-0.048-4.896-0.288-7.52-0.544c-8.444-0.808-17.184-1.656-23.632,4.224
				c-2.476,2.256-4.092,5.156-5.656,7.96c-1.708,3.064-3.32,5.952-5.868,7.712c-4.324,2.984-11.124,1.688-14.868-2.812
				c-3.468-4.172-4.484-10.808-2.592-16.908c0.22-0.708,0.468-1.416,0.724-2.132c1.084-3.068,2.308-6.54,1.184-10.06
				c-1.74-5.46-7.292-6.96-12.2-8.284c-1.892-0.512-3.676-0.996-5.248-1.664c-9.24-3.932-12.204-16.916-10.356-27.704
				c0.852-4.996,3.02-11.964,8.488-16.78c8.664-7.62,17.112-5.684,26.064-3.62c10.212,2.34,20.788,4.776,31.124-7.308
				c4.248-4.968,14.752-5.344,22.488-0.828c4.392,2.572,11.1,8.68,6.684,20.768c-1.756,4.808-0.872,11.06,2.38,16.72
				C195.537,113.309,198.113,115.341,200.601,117.309z"/>
			<path d="M142.285,89.773c-12.112,0-21.964,9.856-21.964,21.968s9.852,21.964,21.964,21.964s21.964-9.852,21.964-21.964
				S154.397,89.773,142.285,89.773z M142.285,131.441c-10.864,0-19.7-8.836-19.7-19.7c0-10.864,8.836-19.704,19.7-19.704
				c10.864,0,19.7,8.84,19.7,19.704C161.985,122.605,153.145,131.441,142.285,131.441z"/>
			<path d="M131.841,102.181c-2.636,2.86-4,6.576-3.844,10.464l2.264-0.092c-0.132-3.284,1.02-6.42,3.248-8.832
				c2.224-2.416,5.256-3.812,8.544-3.944l-0.092-2.264C138.073,97.665,134.477,99.325,131.841,102.181z"/>
			<path d="M103.889,186.329c-2.132-3.172-5.952-3.428-9.648-3.68c-3.216-0.216-6.252-0.42-7.932-2.468
				c-1.32-1.608-1.36-3.88-1.408-6.284c-0.032-1.584-0.064-3.224-0.456-4.796c-0.8-3.188-3.192-5.928-6.24-7.16
				c-0.916-0.372-1.872-0.604-2.792-0.832c-1.492-0.368-2.9-0.716-3.924-1.58l-1.46,1.736c1.432,1.208,3.168,1.632,4.844,2.048
				c0.884,0.216,1.72,0.42,2.484,0.732c2.392,0.964,4.264,3.116,4.892,5.612c0.332,1.32,0.36,2.76,0.392,4.284
				c0.048,2.688,0.1,5.46,1.92,7.68c2.3,2.804,5.976,3.056,9.532,3.296c3.292,0.224,6.408,0.428,7.916,2.68
				c0.676,1.004,0.908,2.288,1.152,3.648c0.188,1.056,0.384,2.144,0.8,3.196l2.108-0.836c-0.336-0.84-0.5-1.772-0.68-2.76
				C105.117,189.313,104.829,187.729,103.889,186.329z"/>
			<path d="M285.205,52.997c-0.052-2.292-0.52-3.344-1.656-5.372l-0.292-0.52l-5.036,0.084l0.472,49.876l-2.308,0.048l-0.468-49.884
				l-7.156,0.12l0.472,50.024c-0.796,0.004-1.868,0.024-2.664,0.044l-0.472-50.024l-7.156,0.12l0.468,49.884l-2.192,0.028
				l-0.472-49.876l-5.036,0.088l-0.28,0.532c-0.212,0.404-0.388,0.704-0.524,0.948c-0.644,1.124-0.772,1.504-0.78,3.304
				c-0.084,19.94,0.08,38.132,0.504,55.62l0.024,1.688c0.064,5.784,0.276,10.68,2.216,11.968c9.016,5.964,8.368,15.124,7.624,25.728
				c-0.132,1.884-0.268,3.78-0.34,5.664c-0.716,17.892-1.22,36.092-1.708,53.696c-0.168,6.06-0.336,12.12-0.512,18.18
				c-0.196,6.8-0.132,14.444,3.132,19.052c0.912,1.288,2.036,2.268,3.364,2.928c1.32,0.66,2.84,1.008,4.552,1.036l0.272-0.012
				l0.264-0.004l0.288,0.004c3.42-0.176,6.056-1.6,7.828-4.236c3.176-4.72,3.092-12.364,2.768-19.152
				c-0.288-6.004-0.568-12.012-0.848-18.016c-0.824-17.624-1.672-35.852-2.724-53.76c-0.112-1.88-0.28-3.768-0.448-5.648
				c-0.948-10.576-1.768-19.708,7.132-25.98c2.04-1.44,2.228-6.456,2.244-11.912l0.004-0.64
				C285.841,91.157,285.661,72.961,285.205,52.997z M283.845,108.601l-0.004,0.648c-0.008,2.412-0.032,8.82-1.224,9.664
				c-10.064,7.088-9.084,18-8.14,28.548c0.168,1.844,0.332,3.696,0.44,5.544c1.056,17.888,1.904,36.104,2.724,53.72
				c0.28,6.008,0.56,12.016,0.848,18.02c0.3,6.272,0.4,13.296-2.28,17.28c-1.436,2.128-3.556,3.24-6.488,3.388l-0.364-0.008
				l-0.368,0.02c-2.936-0.056-5.076-1.092-6.548-3.172c-2.756-3.892-2.788-10.916-2.608-17.196c0.176-6.06,0.344-12.12,0.512-18.184
				c0.488-17.592,0.992-35.78,1.704-53.652c0.076-1.848,0.204-3.708,0.336-5.56c0.744-10.576,1.516-21.516-8.676-28.26
				c-1.052-0.696-1.124-7.244-1.148-9.712l-0.028-1.732c-0.42-17.456-0.584-35.616-0.5-55.524c0.004-1.1,0.004-1.1,0.384-1.76
				c0.084-0.144,0.176-0.304,0.28-0.496l2.172-0.036l0.472,49.868l6.008-0.076l-0.472-49.896l3.344-0.056l0.476,50.1l0.996-0.072
				c0.548-0.04,3.904-0.1,4.488-0.076l0.992,0.036l-0.484-50.096l3.344-0.056l0.472,49.892l6.12-0.128l-0.472-49.872l2.16-0.036
				c0.772,1.42,0.956,1.996,0.988,3.4C283.757,73.009,283.937,91.173,283.845,108.601z"/>
			<polygon points="263.101,206.649 265.005,206.725 265.285,194.737 263.381,194.657 			"/>
			<polygon points="263.685,189.965 265.589,190.045 266.445,153.081 264.541,153.001 			"/>
		</g>
	</g>
</g>
</svg>