<?xml version="1.0" encoding="iso-8859-1"?>
<!-- Uploaded to: SVG Repo, www.svgrepo.com, Generator: SVG Repo Mixer Tools -->
<svg fill="#000000" height="800px" width="800px" version="1.1" id="Layer_1" xmlns="http://www.w3.org/2000/svg" xmlns:xlink="http://www.w3.org/1999/xlink" 
	 viewBox="0 0 447 447" xml:space="preserve">
<g transform="translate(0 -540.36)">
	<g>
		<g>
			<path d="M401.268,581.66c-19.3-22.5-50.4-30.7-79.2-20.9c-26.8,9.1-45.3,33.6-47.7,62h-133.9l-34.1-82.4h-78.6v15h68.6l27.9,67.4
				h-56c-2.2,0-4.3,1-5.7,2.6c-1.4,1.7-2.1,3.9-1.7,6l49,316.6v31.9c0,4.1,3.4,7.5,7.5,7.5h180.2c4.1,0,7.5-3.4,7.5-7.5v-31.9
				l37.7-243.6c1.8,0.1,3.7,0.2,5.5,0.2c26.6,0,50.5-14.9,62.7-39.7C424.868,637.76,420.968,604.36,401.268,581.66z M289.968,972.36
				h-165.2v-17.5h165.2V972.36z M291.068,939.86h-167.4l-46.7-302.1h260.8l0,0L291.068,939.86z M397.568,658.06c0,0,0,0.1-0.1,0.1
				c-10.1,20.6-30.4,32.5-52.5,31.3l9-58.1c0.3-2.2-0.3-4.4-1.7-6c-1.4-1.7-3.5-2.6-5.7-2.6h-57.1c2.3-22,16.8-40.8,37.5-47.8
				c23-7.8,47.7-1.3,63,16.5C405.668,609.66,408.768,636.36,397.568,658.06L397.568,658.06z"/>
			<path d="M134.468,780.06c0.4,0,0.7,0,1.2-0.1c4.1-0.7,6.8-4.5,6.2-8.6l-17.2-108.6c-0.7-4.1-4.5-6.8-8.6-6.2
				c-4.1,0.7-6.8,4.5-6.2,8.6l17.2,108.6C127.668,777.46,130.868,780.06,134.468,780.06z"/>
			<path d="M134.468,790.06c-4.1,0-7.5,3.4-7.5,7.5v7.5c0,4.1,3.4,7.5,7.5,7.5c4.1,0,7.5-3.4,7.5-7.5v-7.5
				C141.968,793.46,138.568,790.06,134.468,790.06z"/>
		</g>
	</g>
</g>
</svg>